<?xml version="1.0" encoding="utf-8" standalone="no"?>
<!DOCTYPE svg PUBLIC "-//W3C//DTD SVG 1.1//EN"
  "http://www.w3.org/Graphics/SVG/1.1/DTD/svg11.dtd">
<svg xmlns:xlink="http://www.w3.org/1999/xlink" width="557.815937pt" height="376.991875pt" viewBox="0 0 557.815937 376.991875" xmlns="http://www.w3.org/2000/svg" version="1.1">
 <metadata>
  <rdf:RDF xmlns:dc="http://purl.org/dc/elements/1.1/" xmlns:cc="http://creativecommons.org/ns#" xmlns:rdf="http://www.w3.org/1999/02/22-rdf-syntax-ns#">
   <cc:Work>
    <dc:type rdf:resource="http://purl.org/dc/dcmitype/StillImage"/>
    <dc:date>2022-11-13T21:39:02.392033</dc:date>
    <dc:format>image/svg+xml</dc:format>
    <dc:creator>
     <cc:Agent>
      <dc:title>Matplotlib v3.5.2, https://matplotlib.org/</dc:title>
     </cc:Agent>
    </dc:creator>
   </cc:Work>
  </rdf:RDF>
 </metadata>
 <defs>
  <style type="text/css">*{stroke-linejoin: round; stroke-linecap: butt}</style>
 </defs>
 <g id="figure_1">
  <g id="patch_1">
   <path d="M 0 376.991875 
L 557.815937 376.991875 
L 557.815937 0 
L 0 0 
L 0 376.991875 
z
" style="fill: none"/>
  </g>
  <g id="axes_1">
   <g id="patch_2">
    <path d="M 48.415938 333.36 
L 550.615938 333.36 
L 550.615938 7.2 
L 48.415938 7.2 
z
" style="fill: #ffffff"/>
   </g>
   <g id="matplotlib.axis_1">
    <g id="xtick_1">
     <g id="line2d_1">
      <path d="M 71.24321 333.36 
L 71.24321 7.2 
" clip-path="url(#p49ba849fac)" style="fill: none; stroke: #b0b0b0; stroke-width: 0.8; stroke-linecap: square"/>
     </g>
     <g id="line2d_2">
      <defs>
       <path id="mec6d6a1e6b" d="M 0 0 
L 0 3.5 
" style="stroke: #000000; stroke-width: 0.8"/>
      </defs>
      <g>
       <use xlink:href="#mec6d6a1e6b" x="71.24321" y="333.36" style="stroke: #000000; stroke-width: 0.8"/>
      </g>
     </g>
     <g id="text_1">
      <!-- 0.00 -->
      <g transform="translate(58.99321 350.08125)scale(0.14 -0.14)">
       <defs>
        <path id="TimesNewRomanPSMT-30" d="M 231 2094 
Q 231 2819 450 3342 
Q 669 3866 1031 4122 
Q 1313 4325 1613 4325 
Q 2100 4325 2488 3828 
Q 2972 3213 2972 2159 
Q 2972 1422 2759 906 
Q 2547 391 2217 158 
Q 1888 -75 1581 -75 
Q 975 -75 572 641 
Q 231 1244 231 2094 
z
M 844 2016 
Q 844 1141 1059 588 
Q 1238 122 1591 122 
Q 1759 122 1940 273 
Q 2122 425 2216 781 
Q 2359 1319 2359 2297 
Q 2359 3022 2209 3506 
Q 2097 3866 1919 4016 
Q 1791 4119 1609 4119 
Q 1397 4119 1231 3928 
Q 1006 3669 925 3112 
Q 844 2556 844 2016 
z
" transform="scale(0.015625)"/>
        <path id="TimesNewRomanPSMT-2e" d="M 800 606 
Q 947 606 1047 504 
Q 1147 403 1147 259 
Q 1147 116 1045 14 
Q 944 -88 800 -88 
Q 656 -88 554 14 
Q 453 116 453 259 
Q 453 406 554 506 
Q 656 606 800 606 
z
" transform="scale(0.015625)"/>
       </defs>
       <use xlink:href="#TimesNewRomanPSMT-30"/>
       <use xlink:href="#TimesNewRomanPSMT-2e" x="50"/>
       <use xlink:href="#TimesNewRomanPSMT-30" x="75"/>
       <use xlink:href="#TimesNewRomanPSMT-30" x="125"/>
      </g>
     </g>
    </g>
    <g id="xtick_2">
     <g id="line2d_3">
      <path d="M 171.422613 333.36 
L 171.422613 7.2 
" clip-path="url(#p49ba849fac)" style="fill: none; stroke: #b0b0b0; stroke-width: 0.8; stroke-linecap: square"/>
     </g>
     <g id="line2d_4">
      <g>
       <use xlink:href="#mec6d6a1e6b" x="171.422613" y="333.36" style="stroke: #000000; stroke-width: 0.8"/>
      </g>
     </g>
     <g id="text_2">
      <!-- 0.01 -->
      <g transform="translate(159.172613 350.08125)scale(0.14 -0.14)">
       <defs>
        <path id="TimesNewRomanPSMT-31" d="M 750 3822 
L 1781 4325 
L 1884 4325 
L 1884 747 
Q 1884 391 1914 303 
Q 1944 216 2037 169 
Q 2131 122 2419 116 
L 2419 0 
L 825 0 
L 825 116 
Q 1125 122 1212 167 
Q 1300 213 1334 289 
Q 1369 366 1369 747 
L 1369 3034 
Q 1369 3497 1338 3628 
Q 1316 3728 1258 3775 
Q 1200 3822 1119 3822 
Q 1003 3822 797 3725 
L 750 3822 
z
" transform="scale(0.015625)"/>
       </defs>
       <use xlink:href="#TimesNewRomanPSMT-30"/>
       <use xlink:href="#TimesNewRomanPSMT-2e" x="50"/>
       <use xlink:href="#TimesNewRomanPSMT-30" x="75"/>
       <use xlink:href="#TimesNewRomanPSMT-31" x="125"/>
      </g>
     </g>
    </g>
    <g id="xtick_3">
     <g id="line2d_5">
      <path d="M 271.602017 333.36 
L 271.602017 7.2 
" clip-path="url(#p49ba849fac)" style="fill: none; stroke: #b0b0b0; stroke-width: 0.8; stroke-linecap: square"/>
     </g>
     <g id="line2d_6">
      <g>
       <use xlink:href="#mec6d6a1e6b" x="271.602017" y="333.36" style="stroke: #000000; stroke-width: 0.8"/>
      </g>
     </g>
     <g id="text_3">
      <!-- 0.02 -->
      <g transform="translate(259.352017 350.08125)scale(0.14 -0.14)">
       <defs>
        <path id="TimesNewRomanPSMT-32" d="M 2934 816 
L 2638 0 
L 138 0 
L 138 116 
Q 1241 1122 1691 1759 
Q 2141 2397 2141 2925 
Q 2141 3328 1894 3587 
Q 1647 3847 1303 3847 
Q 991 3847 742 3664 
Q 494 3481 375 3128 
L 259 3128 
Q 338 3706 661 4015 
Q 984 4325 1469 4325 
Q 1984 4325 2329 3994 
Q 2675 3663 2675 3213 
Q 2675 2891 2525 2569 
Q 2294 2063 1775 1497 
Q 997 647 803 472 
L 1909 472 
Q 2247 472 2383 497 
Q 2519 522 2628 598 
Q 2738 675 2819 816 
L 2934 816 
z
" transform="scale(0.015625)"/>
       </defs>
       <use xlink:href="#TimesNewRomanPSMT-30"/>
       <use xlink:href="#TimesNewRomanPSMT-2e" x="50"/>
       <use xlink:href="#TimesNewRomanPSMT-30" x="75"/>
       <use xlink:href="#TimesNewRomanPSMT-32" x="125"/>
      </g>
     </g>
    </g>
    <g id="xtick_4">
     <g id="line2d_7">
      <path d="M 371.78142 333.36 
L 371.78142 7.2 
" clip-path="url(#p49ba849fac)" style="fill: none; stroke: #b0b0b0; stroke-width: 0.8; stroke-linecap: square"/>
     </g>
     <g id="line2d_8">
      <g>
       <use xlink:href="#mec6d6a1e6b" x="371.78142" y="333.36" style="stroke: #000000; stroke-width: 0.8"/>
      </g>
     </g>
     <g id="text_4">
      <!-- 0.03 -->
      <g transform="translate(359.53142 350.08125)scale(0.14 -0.14)">
       <defs>
        <path id="TimesNewRomanPSMT-33" d="M 325 3431 
Q 506 3859 782 4092 
Q 1059 4325 1472 4325 
Q 1981 4325 2253 3994 
Q 2459 3747 2459 3466 
Q 2459 3003 1878 2509 
Q 2269 2356 2469 2072 
Q 2669 1788 2669 1403 
Q 2669 853 2319 450 
Q 1863 -75 997 -75 
Q 569 -75 414 31 
Q 259 138 259 259 
Q 259 350 332 419 
Q 406 488 509 488 
Q 588 488 669 463 
Q 722 447 909 348 
Q 1097 250 1169 231 
Q 1284 197 1416 197 
Q 1734 197 1970 444 
Q 2206 691 2206 1028 
Q 2206 1275 2097 1509 
Q 2016 1684 1919 1775 
Q 1784 1900 1550 2001 
Q 1316 2103 1072 2103 
L 972 2103 
L 972 2197 
Q 1219 2228 1467 2375 
Q 1716 2522 1828 2728 
Q 1941 2934 1941 3181 
Q 1941 3503 1739 3701 
Q 1538 3900 1238 3900 
Q 753 3900 428 3381 
L 325 3431 
z
" transform="scale(0.015625)"/>
       </defs>
       <use xlink:href="#TimesNewRomanPSMT-30"/>
       <use xlink:href="#TimesNewRomanPSMT-2e" x="50"/>
       <use xlink:href="#TimesNewRomanPSMT-30" x="75"/>
       <use xlink:href="#TimesNewRomanPSMT-33" x="125"/>
      </g>
     </g>
    </g>
    <g id="xtick_5">
     <g id="line2d_9">
      <path d="M 471.960823 333.36 
L 471.960823 7.2 
" clip-path="url(#p49ba849fac)" style="fill: none; stroke: #b0b0b0; stroke-width: 0.8; stroke-linecap: square"/>
     </g>
     <g id="line2d_10">
      <g>
       <use xlink:href="#mec6d6a1e6b" x="471.960823" y="333.36" style="stroke: #000000; stroke-width: 0.8"/>
      </g>
     </g>
     <g id="text_5">
      <!-- 0.04 -->
      <g transform="translate(459.710823 350.08125)scale(0.14 -0.14)">
       <defs>
        <path id="TimesNewRomanPSMT-34" d="M 2978 1563 
L 2978 1119 
L 2409 1119 
L 2409 0 
L 1894 0 
L 1894 1119 
L 100 1119 
L 100 1519 
L 2066 4325 
L 2409 4325 
L 2409 1563 
L 2978 1563 
z
M 1894 1563 
L 1894 3666 
L 406 1563 
L 1894 1563 
z
" transform="scale(0.015625)"/>
       </defs>
       <use xlink:href="#TimesNewRomanPSMT-30"/>
       <use xlink:href="#TimesNewRomanPSMT-2e" x="50"/>
       <use xlink:href="#TimesNewRomanPSMT-30" x="75"/>
       <use xlink:href="#TimesNewRomanPSMT-34" x="125"/>
      </g>
     </g>
    </g>
    <g id="text_6">
     <!-- $\mathit{t}, с$ -->
     <g transform="translate(291.605938 366.797188)scale(0.14 -0.14)">
      <defs>
       <path id="STIXGeneral-Italic-74" d="M 1894 2739 
L 1862 2534 
L 1325 2534 
L 768 435 
Q 755 384 755 346 
Q 755 243 851 243 
Q 928 243 1030 342 
Q 1133 442 1370 749 
L 1453 704 
Q 1158 256 969 93 
Q 781 -70 538 -70 
Q 243 -70 243 166 
Q 243 230 346 640 
L 845 2534 
L 365 2534 
L 358 2573 
Q 358 2688 570 2733 
Q 730 2771 992 2979 
Q 1254 3187 1421 3437 
Q 1459 3494 1510 3494 
Q 1568 3494 1568 3443 
Q 1568 3411 1562 3398 
L 1382 2739 
L 1894 2739 
z
" transform="scale(0.015625)"/>
       <path id="TimesNewRomanPSMT-2c" d="M 344 -1066 
L 344 -928 
Q 666 -822 842 -598 
Q 1019 -375 1019 -125 
Q 1019 -66 991 -25 
Q 969 3 947 3 
Q 913 3 797 -59 
Q 741 -88 678 -88 
Q 525 -88 434 3 
Q 344 94 344 253 
Q 344 406 461 515 
Q 578 625 747 625 
Q 953 625 1114 445 
Q 1275 266 1275 -31 
Q 1275 -353 1051 -629 
Q 828 -906 344 -1066 
z
" transform="scale(0.015625)"/>
       <path id="TimesNewRomanPSMT-441" d="M 2631 1088 
Q 2516 522 2178 217 
Q 1841 -88 1431 -88 
Q 944 -88 581 321 
Q 219 731 219 1428 
Q 219 2103 620 2525 
Q 1022 2947 1584 2947 
Q 2006 2947 2278 2723 
Q 2550 2500 2550 2259 
Q 2550 2141 2473 2067 
Q 2397 1994 2259 1994 
Q 2075 1994 1981 2113 
Q 1928 2178 1911 2362 
Q 1894 2547 1784 2644 
Q 1675 2738 1481 2738 
Q 1169 2738 978 2506 
Q 725 2200 725 1697 
Q 725 1184 976 792 
Q 1228 400 1656 400 
Q 1963 400 2206 609 
Q 2378 753 2541 1131 
L 2631 1088 
z
" transform="scale(0.015625)"/>
      </defs>
      <use xlink:href="#STIXGeneral-Italic-74" transform="translate(0 0.40625)"/>
      <use xlink:href="#TimesNewRomanPSMT-2c" transform="translate(27.799988 0.40625)"/>
      <use xlink:href="#TimesNewRomanPSMT-441" transform="translate(68.356628 0.40625)"/>
     </g>
    </g>
   </g>
   <g id="matplotlib.axis_2">
    <g id="ytick_1">
     <g id="line2d_11">
      <path d="M 48.415938 329.789717 
L 550.615938 329.789717 
" clip-path="url(#p49ba849fac)" style="fill: none; stroke: #b0b0b0; stroke-width: 0.8; stroke-linecap: square"/>
     </g>
     <g id="line2d_12">
      <defs>
       <path id="mf1c1945d06" d="M 0 0 
L -3.5 0 
" style="stroke: #000000; stroke-width: 0.8"/>
      </defs>
      <g>
       <use xlink:href="#mf1c1945d06" x="48.415938" y="329.789717" style="stroke: #000000; stroke-width: 0.8"/>
      </g>
     </g>
     <g id="text_7">
      <!-- 0.0 -->
      <g transform="translate(23.915938 334.650342)scale(0.14 -0.14)">
       <use xlink:href="#TimesNewRomanPSMT-30"/>
       <use xlink:href="#TimesNewRomanPSMT-2e" x="50"/>
       <use xlink:href="#TimesNewRomanPSMT-30" x="75"/>
      </g>
     </g>
    </g>
    <g id="ytick_2">
     <g id="line2d_13">
      <path d="M 48.415938 274.249764 
L 550.615938 274.249764 
" clip-path="url(#p49ba849fac)" style="fill: none; stroke: #b0b0b0; stroke-width: 0.8; stroke-linecap: square"/>
     </g>
     <g id="line2d_14">
      <g>
       <use xlink:href="#mf1c1945d06" x="48.415938" y="274.249764" style="stroke: #000000; stroke-width: 0.8"/>
      </g>
     </g>
     <g id="text_8">
      <!-- 0.5 -->
      <g transform="translate(23.915938 279.110389)scale(0.14 -0.14)">
       <defs>
        <path id="TimesNewRomanPSMT-35" d="M 2778 4238 
L 2534 3706 
L 1259 3706 
L 981 3138 
Q 1809 3016 2294 2522 
Q 2709 2097 2709 1522 
Q 2709 1188 2573 903 
Q 2438 619 2231 419 
Q 2025 219 1772 97 
Q 1413 -75 1034 -75 
Q 653 -75 479 54 
Q 306 184 306 341 
Q 306 428 378 495 
Q 450 563 559 563 
Q 641 563 702 538 
Q 763 513 909 409 
Q 1144 247 1384 247 
Q 1750 247 2026 523 
Q 2303 800 2303 1197 
Q 2303 1581 2056 1914 
Q 1809 2247 1375 2428 
Q 1034 2569 447 2591 
L 1259 4238 
L 2778 4238 
z
" transform="scale(0.015625)"/>
       </defs>
       <use xlink:href="#TimesNewRomanPSMT-30"/>
       <use xlink:href="#TimesNewRomanPSMT-2e" x="50"/>
       <use xlink:href="#TimesNewRomanPSMT-35" x="75"/>
      </g>
     </g>
    </g>
    <g id="ytick_3">
     <g id="line2d_15">
      <path d="M 48.415938 218.709811 
L 550.615938 218.709811 
" clip-path="url(#p49ba849fac)" style="fill: none; stroke: #b0b0b0; stroke-width: 0.8; stroke-linecap: square"/>
     </g>
     <g id="line2d_16">
      <g>
       <use xlink:href="#mf1c1945d06" x="48.415938" y="218.709811" style="stroke: #000000; stroke-width: 0.8"/>
      </g>
     </g>
     <g id="text_9">
      <!-- 1.0 -->
      <g transform="translate(23.915938 223.570436)scale(0.14 -0.14)">
       <use xlink:href="#TimesNewRomanPSMT-31"/>
       <use xlink:href="#TimesNewRomanPSMT-2e" x="50"/>
       <use xlink:href="#TimesNewRomanPSMT-30" x="75"/>
      </g>
     </g>
    </g>
    <g id="ytick_4">
     <g id="line2d_17">
      <path d="M 48.415938 163.169858 
L 550.615938 163.169858 
" clip-path="url(#p49ba849fac)" style="fill: none; stroke: #b0b0b0; stroke-width: 0.8; stroke-linecap: square"/>
     </g>
     <g id="line2d_18">
      <g>
       <use xlink:href="#mf1c1945d06" x="48.415938" y="163.169858" style="stroke: #000000; stroke-width: 0.8"/>
      </g>
     </g>
     <g id="text_10">
      <!-- 1.5 -->
      <g transform="translate(23.915938 168.030483)scale(0.14 -0.14)">
       <use xlink:href="#TimesNewRomanPSMT-31"/>
       <use xlink:href="#TimesNewRomanPSMT-2e" x="50"/>
       <use xlink:href="#TimesNewRomanPSMT-35" x="75"/>
      </g>
     </g>
    </g>
    <g id="ytick_5">
     <g id="line2d_19">
      <path d="M 48.415938 107.629905 
L 550.615938 107.629905 
" clip-path="url(#p49ba849fac)" style="fill: none; stroke: #b0b0b0; stroke-width: 0.8; stroke-linecap: square"/>
     </g>
     <g id="line2d_20">
      <g>
       <use xlink:href="#mf1c1945d06" x="48.415938" y="107.629905" style="stroke: #000000; stroke-width: 0.8"/>
      </g>
     </g>
     <g id="text_11">
      <!-- 2.0 -->
      <g transform="translate(23.915938 112.49053)scale(0.14 -0.14)">
       <use xlink:href="#TimesNewRomanPSMT-32"/>
       <use xlink:href="#TimesNewRomanPSMT-2e" x="50"/>
       <use xlink:href="#TimesNewRomanPSMT-30" x="75"/>
      </g>
     </g>
    </g>
    <g id="ytick_6">
     <g id="line2d_21">
      <path d="M 48.415938 52.089952 
L 550.615938 52.089952 
" clip-path="url(#p49ba849fac)" style="fill: none; stroke: #b0b0b0; stroke-width: 0.8; stroke-linecap: square"/>
     </g>
     <g id="line2d_22">
      <g>
       <use xlink:href="#mf1c1945d06" x="48.415938" y="52.089952" style="stroke: #000000; stroke-width: 0.8"/>
      </g>
     </g>
     <g id="text_12">
      <!-- 2.5 -->
      <g transform="translate(23.915938 56.950577)scale(0.14 -0.14)">
       <use xlink:href="#TimesNewRomanPSMT-32"/>
       <use xlink:href="#TimesNewRomanPSMT-2e" x="50"/>
       <use xlink:href="#TimesNewRomanPSMT-35" x="75"/>
      </g>
     </g>
    </g>
    <g id="text_13">
     <!-- $\mathit{p}, МПа$ -->
     <g transform="translate(16.92125 191.07)rotate(-90)scale(0.14 -0.14)">
      <defs>
       <path id="STIXGeneral-Italic-70" d="M 1376 2739 
L 1190 2099 
Q 1670 2822 2285 2822 
Q 2637 2822 2829 2611 
Q 3021 2400 3021 2022 
Q 3021 1235 2422 582 
Q 1824 -70 1120 -70 
Q 890 -70 678 38 
Q 422 -1018 422 -1024 
Q 422 -1126 508 -1168 
Q 595 -1210 819 -1210 
L 819 -1312 
L -480 -1312 
L -480 -1210 
Q -275 -1203 -188 -1120 
Q -102 -1037 -45 -806 
L 691 1958 
Q 794 2330 794 2413 
Q 794 2586 512 2586 
L 371 2586 
L 358 2682 
L 1357 2822 
Q 1389 2822 1389 2797 
Q 1382 2765 1376 2739 
z
M 2445 2003 
Q 2445 2285 2352 2416 
Q 2259 2547 2048 2547 
Q 1798 2547 1548 2329 
Q 1299 2112 1184 1818 
Q 1043 1453 905 953 
Q 768 454 768 294 
Q 768 186 854 118 
Q 941 51 1075 51 
Q 1574 51 2003 659 
Q 2445 1274 2445 2003 
z
" transform="scale(0.015625)"/>
       <path id="TimesNewRomanPSMT-41c" d="M 2619 0 
L 981 3566 
L 981 734 
Q 981 344 1066 247 
Q 1181 116 1431 116 
L 1581 116 
L 1581 0 
L 106 0 
L 106 116 
L 256 116 
Q 525 116 638 278 
Q 706 378 706 734 
L 706 3503 
Q 706 3784 644 3909 
Q 600 4000 483 4061 
Q 366 4122 106 4122 
L 106 4238 
L 1306 4238 
L 2844 922 
L 4356 4238 
L 5556 4238 
L 5556 4122 
L 5409 4122 
Q 5138 4122 5025 3959 
Q 4956 3859 4956 3503 
L 4956 734 
Q 4956 344 5044 247 
Q 5159 116 5409 116 
L 5556 116 
L 5556 0 
L 3756 0 
L 3756 116 
L 3906 116 
Q 4178 116 4288 278 
Q 4356 378 4356 734 
L 4356 3566 
L 2722 0 
L 2619 0 
z
" transform="scale(0.015625)"/>
       <path id="TimesNewRomanPSMT-41f" d="M 3294 4006 
L 1328 4006 
L 1328 772 
Q 1328 353 1436 240 
Q 1544 128 1941 116 
L 1941 0 
L 116 0 
L 116 116 
Q 509 128 618 240 
Q 728 353 728 772 
L 728 3466 
Q 728 3884 618 3996 
Q 509 4109 116 4122 
L 116 4238 
L 4506 4238 
L 4506 4122 
Q 4113 4109 4003 3996 
Q 3894 3884 3894 3466 
L 3894 772 
Q 3894 353 4003 240 
Q 4113 128 4506 116 
L 4506 0 
L 2684 0 
L 2684 116 
Q 3075 128 3184 239 
Q 3294 350 3294 772 
L 3294 4006 
z
" transform="scale(0.015625)"/>
       <path id="TimesNewRomanPSMT-430" d="M 1822 413 
Q 1381 72 1269 19 
Q 1100 -59 909 -59 
Q 613 -59 420 144 
Q 228 347 228 678 
Q 228 888 322 1041 
Q 450 1253 767 1440 
Q 1084 1628 1822 1897 
L 1822 2009 
Q 1822 2438 1686 2597 
Q 1550 2756 1291 2756 
Q 1094 2756 978 2650 
Q 859 2544 859 2406 
L 866 2225 
Q 866 2081 792 2003 
Q 719 1925 600 1925 
Q 484 1925 411 2006 
Q 338 2088 338 2228 
Q 338 2497 613 2722 
Q 888 2947 1384 2947 
Q 1766 2947 2009 2819 
Q 2194 2722 2281 2516 
Q 2338 2381 2338 1966 
L 2338 994 
Q 2338 584 2353 492 
Q 2369 400 2405 369 
Q 2441 338 2488 338 
Q 2538 338 2575 359 
Q 2641 400 2828 588 
L 2828 413 
Q 2478 -56 2159 -56 
Q 2006 -56 1915 50 
Q 1825 156 1822 413 
z
M 1822 616 
L 1822 1706 
Q 1350 1519 1213 1441 
Q 966 1303 859 1153 
Q 753 1003 753 825 
Q 753 600 887 451 
Q 1022 303 1197 303 
Q 1434 303 1822 616 
z
" transform="scale(0.015625)"/>
      </defs>
      <use xlink:href="#STIXGeneral-Italic-70" transform="translate(0 0.78125)"/>
      <use xlink:href="#TimesNewRomanPSMT-2c" transform="translate(50.399994 0.78125)"/>
      <use xlink:href="#TimesNewRomanPSMT-41c" transform="translate(90.956635 0.78125)"/>
      <use xlink:href="#TimesNewRomanPSMT-41f" transform="translate(179.87265 0.78125)"/>
      <use xlink:href="#TimesNewRomanPSMT-430" transform="translate(252.089447 0.78125)"/>
     </g>
    </g>
   </g>
   <g id="line2d_23">
    <path d="M 71.24321 318.534545 
L 72.245505 229.886018 
L 73.247801 166.180989 
L 74.250096 120.588797 
L 75.252391 88.14796 
L 76.254686 65.254695 
L 77.256981 49.291394 
L 78.259276 38.356767 
L 79.261572 31.069832 
L 80.263867 26.427534 
L 80.765014 24.861942 
L 81.266162 23.701332 
L 81.76731 22.885224 
L 82.268457 22.362077 
L 82.769605 22.087965 
L 83.270752 22.025455 
L 83.7719 22.142644 
L 84.273048 22.412348 
L 85.275343 23.320055 
L 86.277638 24.601375 
L 87.781081 26.998312 
L 89.785671 30.728088 
L 93.293704 37.897415 
L 104.318951 60.761103 
L 110.332722 72.597767 
L 116.346493 83.919358 
L 122.360264 94.743412 
L 128.374035 105.091077 
L 134.387807 114.983215 
L 140.401578 124.439865 
L 146.415349 133.480194 
L 152.42912 142.122532 
L 158.442891 150.3844 
L 164.456662 158.282546 
L 170.470433 165.832985 
L 176.484204 173.051022 
L 182.999123 180.512414 
L 189.514041 187.618614 
L 196.02896 194.386531 
L 202.543879 200.832267 
L 209.058797 206.97116 
L 215.573716 212.817817 
L 222.589782 218.80334 
L 229.605849 224.482579 
L 236.621915 229.871208 
L 243.637981 234.984098 
L 250.654047 239.835358 
L 258.171261 244.758004 
L 265.688475 249.411264 
L 273.205689 253.80988 
L 281.22405 258.236749 
L 289.242412 262.405692 
L 297.260773 266.331737 
L 305.780282 270.25283 
L 314.299791 273.931638 
L 323.320448 277.579385 
L 332.341105 280.98892 
L 341.862909 284.346617 
L 351.384713 287.47329 
L 361.407665 290.532401 
L 371.931764 293.506749 
L 382.957011 296.381324 
L 393.982258 299.028156 
L 405.508653 301.571359 
L 417.536195 304.001241 
L 430.064885 306.310143 
L 443.59587 308.572135 
L 457.628002 310.688011 
L 472.161282 312.657285 
L 487.696858 314.538412 
L 504.234728 316.314487 
L 521.774894 317.972736 
L 527.788665 318.492968 
L 527.788665 318.492968 
" clip-path="url(#p49ba849fac)" style="fill: none; stroke: #1f77b4; stroke-width: 1.5; stroke-linecap: square"/>
   </g>
   <g id="line2d_24">
    <path d="M 48.415938 50.224609 
L 550.615938 50.224609 
" clip-path="url(#p49ba849fac)" style="fill: none; stroke-dasharray: 5.55,2.4; stroke-dashoffset: 0; stroke: #d62728; stroke-width: 1.5"/>
   </g>
   <g id="patch_3">
    <path d="M 48.415938 333.36 
L 48.415938 7.2 
" style="fill: none; stroke: #000000; stroke-width: 0.8; stroke-linejoin: miter; stroke-linecap: square"/>
   </g>
   <g id="patch_4">
    <path d="M 550.615938 333.36 
L 550.615938 7.2 
" style="fill: none; stroke: #000000; stroke-width: 0.8; stroke-linejoin: miter; stroke-linecap: square"/>
   </g>
   <g id="patch_5">
    <path d="M 48.415937 333.36 
L 550.615938 333.36 
" style="fill: none; stroke: #000000; stroke-width: 0.8; stroke-linejoin: miter; stroke-linecap: square"/>
   </g>
   <g id="patch_6">
    <path d="M 48.415937 7.2 
L 550.615938 7.2 
" style="fill: none; stroke: #000000; stroke-width: 0.8; stroke-linejoin: miter; stroke-linecap: square"/>
   </g>
   <g id="legend_1">
    <g id="patch_7">
     <path d="M 395.355938 38.98 
L 540.815938 38.98 
Q 543.615938 38.98 543.615938 36.18 
L 543.615938 17 
Q 543.615938 14.2 540.815938 14.2 
L 395.355938 14.2 
Q 392.555938 14.2 392.555938 17 
L 392.555938 36.18 
Q 392.555938 38.98 395.355938 38.98 
z
" style="fill: #ffffff; opacity: 0.8; stroke: #cccccc; stroke-linejoin: miter"/>
    </g>
    <g id="line2d_25">
     <path d="M 398.155938 24.7 
L 412.155938 24.7 
L 426.155938 24.7 
" style="fill: none; stroke-dasharray: 5.55,2.4; stroke-dashoffset: 0; stroke: #d62728; stroke-width: 1.5"/>
    </g>
    <g id="text_14">
     <!-- $\mathit{p}_{всп}$ = 2.517 МПа -->
     <g transform="translate(437.355938 29.6)scale(0.14 -0.14)">
      <defs>
       <path id="TimesNewRomanPSMT-432" d="M 2016 1513 
Q 2800 1350 2800 778 
Q 2800 388 2473 194 
Q 2147 0 1563 0 
L 150 0 
L 150 116 
Q 428 116 501 220 
Q 575 325 575 672 
L 575 2191 
Q 575 2528 542 2587 
Q 509 2647 439 2695 
Q 369 2744 150 2744 
L 150 2863 
L 1469 2863 
Q 1850 2863 2086 2803 
Q 2322 2744 2473 2569 
Q 2625 2394 2625 2144 
Q 2625 1656 2016 1513 
z
M 1094 1584 
Q 1231 1581 1259 1581 
Q 1688 1581 1878 1745 
Q 2069 1909 2069 2144 
Q 2069 2416 1875 2537 
Q 1681 2659 1256 2659 
L 1094 2659 
L 1094 1584 
z
M 1094 253 
Q 1250 203 1466 203 
Q 1838 203 2019 365 
Q 2200 528 2200 784 
Q 2200 1072 1965 1225 
Q 1731 1378 1316 1378 
Q 1213 1378 1094 1372 
L 1094 253 
z
" transform="scale(0.015625)"/>
       <path id="TimesNewRomanPSMT-43f" d="M 2331 2659 
L 1094 2659 
L 1094 672 
Q 1094 341 1128 277 
Q 1163 213 1236 164 
Q 1309 116 1528 116 
L 1528 0 
L 144 0 
L 144 116 
Q 422 116 500 217 
Q 578 319 578 672 
L 578 2191 
Q 578 2525 543 2586 
Q 509 2647 437 2695 
Q 366 2744 144 2744 
L 144 2863 
L 3281 2863 
L 3281 2744 
Q 3072 2744 3000 2701 
Q 2928 2659 2887 2596 
Q 2847 2534 2847 2191 
L 2847 672 
Q 2847 341 2881 277 
Q 2916 213 2989 164 
Q 3063 116 3281 116 
L 3281 0 
L 1897 0 
L 1897 116 
Q 2156 116 2243 211 
Q 2331 306 2331 672 
L 2331 2659 
z
" transform="scale(0.015625)"/>
       <path id="TimesNewRomanPSMT-20" transform="scale(0.015625)"/>
       <path id="TimesNewRomanPSMT-3d" d="M 116 2759 
L 3488 2759 
L 3488 2503 
L 116 2503 
L 116 2759 
z
M 116 1741 
L 3488 1741 
L 3488 1484 
L 116 1484 
L 116 1741 
z
" transform="scale(0.015625)"/>
       <path id="TimesNewRomanPSMT-37" d="M 644 4238 
L 2916 4238 
L 2916 4119 
L 1503 -88 
L 1153 -88 
L 2419 3728 
L 1253 3728 
Q 900 3728 750 3644 
Q 488 3500 328 3200 
L 238 3234 
L 644 4238 
z
" transform="scale(0.015625)"/>
      </defs>
      <use xlink:href="#STIXGeneral-Italic-70" transform="translate(0 0.421875)"/>
      <use xlink:href="#TimesNewRomanPSMT-432" transform="translate(50.399994 -25.340625)scale(0.7)"/>
      <use xlink:href="#TimesNewRomanPSMT-441" transform="translate(83.451752 -25.340625)scale(0.7)"/>
      <use xlink:href="#TimesNewRomanPSMT-43f" transform="translate(114.521088 -25.340625)scale(0.7)"/>
      <use xlink:href="#TimesNewRomanPSMT-20" transform="translate(156.275775 0.421875)"/>
      <use xlink:href="#TimesNewRomanPSMT-3d" transform="translate(181.275775 0.421875)"/>
      <use xlink:href="#TimesNewRomanPSMT-20" transform="translate(237.67226 0.421875)"/>
      <use xlink:href="#TimesNewRomanPSMT-32" transform="translate(262.67226 0.421875)"/>
      <use xlink:href="#TimesNewRomanPSMT-2e" transform="translate(312.67226 0.421875)"/>
      <use xlink:href="#TimesNewRomanPSMT-35" transform="translate(337.67226 0.421875)"/>
      <use xlink:href="#TimesNewRomanPSMT-31" transform="translate(387.67226 0.421875)"/>
      <use xlink:href="#TimesNewRomanPSMT-37" transform="translate(437.67226 0.421875)"/>
      <use xlink:href="#TimesNewRomanPSMT-20" transform="translate(487.67226 0.421875)"/>
      <use xlink:href="#TimesNewRomanPSMT-41c" transform="translate(512.67226 0.421875)"/>
      <use xlink:href="#TimesNewRomanPSMT-41f" transform="translate(601.588275 0.421875)"/>
      <use xlink:href="#TimesNewRomanPSMT-430" transform="translate(673.805072 0.421875)"/>
     </g>
    </g>
   </g>
  </g>
 </g>
 <defs>
  <clipPath id="p49ba849fac">
   <rect x="48.415938" y="7.2" width="502.2" height="326.16"/>
  </clipPath>
 </defs>
</svg>
